<svg width="100" height="94" viewBox="0 0 100 94" fill="none" xmlns="http://www.w3.org/2000/svg">
<path d="M99.8144 4.2C99.1244 2.01 97.1844 0.21 94.8444 0L20.0144 0.0700002C15.6144 0.77 11.9444 3.62 10.1344 7.65C7.34438 19.77 2.59438 32.45 0.334376 44.59C-0.675624 50 0.524376 54.77 5.00438 58.18C11.0444 62.76 24.7144 60 32.3944 60.7C33.3444 60.79 33.9744 61 34.0044 62.1C33.3644 67.58 31.4544 73.53 30.9944 78.97C29.8444 92.67 46.0044 98.59 54.5344 88.54L74.9844 60.75L95.2344 60.7C97.3544 60.24 99.0444 58.74 99.7444 56.69C100.124 39.25 100.014 21.66 99.8044 4.21L99.8144 4.2ZM69.6144 56.23C62.9844 64.71 57.1044 73.81 50.4844 82.3C49.2044 83.95 47.9244 86.04 45.6544 86.42C41.1144 87.19 37.6444 84.51 37.9644 79.82C38.3344 74.33 41.0344 67.2 41.0344 61.92C41.0344 57.55 37.5044 54.13 33.2644 53.74C26.3244 53.1 18.5144 54.25 11.4844 53.68C8.26438 52.83 6.33438 49.81 7.05438 46.52L16.3344 11.05C16.5444 9.61 19.2644 7.02 20.6044 7.02H69.6144V56.25V56.23ZM92.9744 53.72H76.6044V7H92.9744V53.72Z" fill="black"/>
</svg>
